<?xml version="1.0" encoding="utf-8"?>
<!-- Generator: Adobe Illustrator 21.0.2, SVG Export Plug-In . SVG Version: 6.00 Build 0)  -->
<svg version="1.1" id="Layer_1" xmlns="http://www.w3.org/2000/svg" xmlns:xlink="http://www.w3.org/1999/xlink" x="0px" y="0px"
	 viewBox="0 0 256 256" style="enable-background:new 0 0 256 256;" xml:space="preserve">
<style type="text/css">
	.st0{fill:url(#Fill-1_1_);}
	.st1{fill:url(#Fill-2_1_);}
	.st2{fill:url(#Fill-3_1_);}
	.st3{fill:#00666E;}
	.st4{fill:url(#Fill-5_1_);}
	.st5{fill:#00083E;}
	.st6{fill:#00215E;}
	.st7{fill:url(#Fill-8_1_);}
	.st8{fill:url(#Fill-9_1_);}
	.st9{fill:#04FBB7;}
	.st10{fill:url(#Fill-12_1_);}
</style>
<title>Page 1</title>
<desc>Created with Sketch.</desc>
<g id="Page-1_1_">
	<g id="v" transform="translate(-77.000000, -423.000000)">
		<g id="Page-1" transform="translate(77.000000, 423.000000)">
			
				<linearGradient id="Fill-1_1_" gradientUnits="userSpaceOnUse" x1="77.2741" y1="167.718" x2="77.2741" y2="166.7363" gradientTransform="matrix(63.627 0 0 -77.374 -4813.3081 12988.458)">
				<stop  offset="0" style="stop-color:#005055"/>
				<stop  offset="1" style="stop-color:#00394D"/>
			</linearGradient>
			<polygon id="Fill-1" class="st0" points="100.6,11.4 80.7,45.8 89,59.1 71.6,88.8 90.5,88.8 135.2,11.4 			"/>
			
				<linearGradient id="Fill-2_1_" gradientUnits="userSpaceOnUse" x1="77.9678" y1="167.4465" x2="77.2428" y2="166.5761" gradientTransform="matrix(90.547 0 0 -126.68 -6984.666 21299.9355)">
				<stop  offset="0" style="stop-color:#004580"/>
				<stop  offset="1" style="stop-color:#003884"/>
			</linearGradient>
			<polygon id="Fill-2" class="st1" points="71.6,88.8 50.1,126.5 25.8,140.5 0,185.9 16.9,215.5 90.5,88.8 			"/>
			
				<linearGradient id="Fill-3_1_" gradientUnits="userSpaceOnUse" x1="77.9981" y1="167.4076" x2="78.1595" y2="166.4413" gradientTransform="matrix(189.552 0 0 -131.421 -14690.1074 22091.2363)">
				<stop  offset="0" style="stop-color:#005D91"/>
				<stop  offset="1" style="stop-color:#002280"/>
			</linearGradient>
			<polygon id="Fill-3" class="st2" points="141.8,219.8 19.6,219.8 16.9,215.5 90.5,88.8 195.3,88.4 206.5,107.4 			"/>
			<polygon id="Fill-4" class="st3" points="135.2,11.4 90.5,88.8 195.3,88.4 154.7,18 143.5,18.1 139.6,11.4 			"/>
			
				<linearGradient id="Fill-5_1_" gradientUnits="userSpaceOnUse" x1="77.8168" y1="167.3439" x2="77.8168" y2="166.4944" gradientTransform="matrix(114.168 0 0 -112.36 -8685.2725 18927.1094)">
				<stop  offset="0" style="stop-color:#002461"/>
				<stop  offset="1" style="stop-color:#010B5B"/>
			</linearGradient>
			<polygon id="Fill-5" class="st4" points="141.8,219.8 239.4,219.8 256,192.7 206.5,107.4 			"/>
			<polygon id="Fill-6" class="st5" points="141.8,219.8 136.1,229.3 141,229.3 150.2,244.6 156,244.6 147.4,229.3 233.3,229.3 
				239.4,219.8 			"/>
			<polygon id="Fill-7" class="st6" points="32.3,229.3 26.6,219.8 141.8,219.8 136.1,229.3 			"/>
			
				<linearGradient id="Fill-8_1_" gradientUnits="userSpaceOnUse" x1="77.4421" y1="168.4248" x2="78.4078" y2="167.4248" gradientTransform="matrix(137.288 0 0 -39.262 -10527.7949 6765.4951)">
				<stop  offset="0" style="stop-color:#00E0D3"/>
				<stop  offset="1" style="stop-color:#3562FF"/>
			</linearGradient>
			<polygon id="Fill-8" class="st7" points="102.7,153.2 217.1,153.2 240,192.4 126.3,192.4 			"/>
			
				<radialGradient id="Fill-9_1_" cx="78.1708" cy="165.8514" r="0.5" gradientTransform="matrix(7.364046e-15 120.2639 120.264 -7.364042e-15 -19835.2051 -9281.7021)" gradientUnits="userSpaceOnUse">
				<stop  offset="0" style="stop-color:#00E5D5"/>
				<stop  offset="1" style="stop-color:#306BFF"/>
			</radialGradient>
			<polygon id="Fill-9" class="st8" points="143.1,25.6 34.7,213.3 131.3,213.3 94.8,150.6 154.9,46.2 			"/>
			<g id="Group-14" transform="translate(106.000000, 39.104000)">
				<path id="Fill-10" class="st9" d="M14,78.1L1.7,99.4c-2.2,3.8,0.6,8.7,5,8.7h24.6L14,78.1z"/>
				
					<linearGradient id="Fill-12_1_" gradientUnits="userSpaceOnUse" x1="-28.9205" y1="127.5677" x2="-28.1591" y2="127.9767" gradientTransform="matrix(90.985 0 0 -96.036 2642.3364 12350.2197)">
					<stop  offset="0" style="stop-color:#04FBB7"/>
					<stop  offset="1" style="stop-color:#00CEFF"/>
				</linearGradient>
				<polygon id="Fill-12" class="st10" points="52.1,12 16.8,72.8 37.9,108.1 107.7,108.1 				"/>
			</g>
		</g>
	</g>
</g>
</svg>
