<svg width="176" height="32" viewBox="0 0 176 32" fill="none" xmlns="http://www.w3.org/2000/svg">
<path d="M52.024 11.3322V10.414C52.024 10.1023 52.1289 9.84729 52.3386 9.64892C52.5484 9.45056 52.7931 9.35138 53.0728 9.35138H57.8133C58.1209 9.35138 58.3726 9.45056 58.5684 9.64892C58.7642 9.84729 58.8621 10.1023 58.8621 10.414V30.5163C58.8621 30.7997 58.7642 31.0476 58.5684 31.2602C58.3726 31.4727 58.1209 31.5789 57.8133 31.5789H53.0728C52.7931 31.5789 52.5484 31.4727 52.3386 31.2602C52.1289 31.0476 52.024 30.7997 52.024 30.5163V29.4195C50.4905 31.0596 49.1063 31.8797 46.2384 31.8797C43.3445 31.8797 41.1224 31.0447 39.572 29.3746C38.0217 27.7045 37.1777 25.3278 37.0398 22.2446C37.0169 21.8734 37.0054 21.2311 37.0054 20.3175C37.0054 19.404 37.0169 18.7616 37.0398 18.3905C37.1777 15.3643 38.0447 13.002 39.6409 11.3033C41.2372 9.60465 43.4364 8.75534 46.2384 8.75534C49.0405 8.75534 50.4006 9.60465 51.9969 11.3033C52.006 11.3129 52.015 11.3226 52.024 11.3322ZM0.00427246 21.4752V10.414C0.00427246 10.1023 0.10915 9.84729 0.318908 9.64892C0.528666 9.45056 0.77338 9.35138 1.05306 9.35138H5.91942C6.22706 9.35138 6.47877 9.45056 6.67454 9.64892C6.87032 9.84729 6.9682 10.1023 6.9682 10.414V11.8592C7.63943 11.0375 8.50641 10.3432 9.56919 9.77644C10.632 9.20969 11.8346 8.92632 13.177 8.92632C16.2535 8.92632 18.365 10.1448 19.5117 12.5819C20.1829 11.505 21.1198 10.6266 22.3224 9.94647C23.525 9.26636 24.8115 8.92632 26.1819 8.92632C28.4753 8.92632 30.3421 9.71267 31.7824 11.2854C33.2228 12.8582 33.9429 15.2031 33.9429 18.3202V30.5163C33.9429 30.7997 33.8451 31.0476 33.6493 31.2602C33.4535 31.4727 33.2018 31.5789 32.8942 31.5789H27.7341C27.4265 31.5789 27.1678 31.4798 26.958 31.2814C26.7483 31.083 26.6434 30.828 26.6434 30.5163V18.6177C26.6434 17.3142 26.3707 16.3578 25.8253 15.7486C25.28 15.1393 24.5458 14.8347 23.6229 14.8347C22.7559 14.8347 22.0497 15.1393 21.5044 15.7486C20.959 16.3578 20.6863 17.3142 20.6863 18.6177V21.4752C20.6863 21.9395 20.3142 22.3158 19.8552 22.3158H14.2179C13.7589 22.3158 13.3868 21.9395 13.3868 21.4752V18.6177C13.3868 17.3142 13.1071 16.3578 12.5477 15.7486C11.9884 15.1393 11.2612 14.8347 10.3663 14.8347C9.49926 14.8347 8.7861 15.1393 8.22674 15.7486C7.66739 16.3578 7.38772 17.3 7.38772 18.5752V21.4752C7.38772 21.9395 7.01561 22.3158 6.5566 22.3158H0.835385C0.376374 22.3158 0.00427246 21.9395 0.00427246 21.4752ZM47.4931 26.484C48.6483 26.484 49.5077 26.12 50.0712 25.392C50.6347 24.664 50.9587 23.5435 51.0432 22.0304C51.0714 21.7449 51.0855 21.174 51.0855 20.3175C51.0855 19.4611 51.0714 18.8901 51.0432 18.6046C50.9587 17.1201 50.6347 16.0067 50.0712 15.2644C49.5077 14.5222 48.6483 14.151 47.4931 14.151C46.3379 14.151 45.4785 14.5222 44.915 15.2644C44.3515 16.0067 44.0274 17.1201 43.9429 18.6046L43.9007 20.3175L43.9429 22.0304C44.0274 23.5435 44.3515 24.664 44.915 25.392C45.4785 26.12 46.3379 26.484 47.4931 26.484ZM63.7704 21.4752V10.414C63.7704 10.1023 63.8752 9.84729 64.085 9.64892C64.2948 9.45056 64.5395 9.35138 64.8192 9.35138H69.9792C70.2868 9.35138 70.5385 9.45056 70.7343 9.64892C70.9301 9.84729 71.028 10.1023 71.028 10.414V12.0293C71.7831 11.0941 72.755 10.3432 73.9436 9.77644C75.1322 9.20969 76.4956 8.92632 78.0339 8.92632C79.628 8.92632 81.0473 9.2947 82.2919 10.0315C83.5365 10.7683 84.5153 11.8592 85.2285 13.3045C85.9417 14.7497 86.2983 16.4924 86.2983 18.5327V30.5163C86.2983 30.7997 86.2004 31.0476 86.0046 31.2602C85.8088 31.4727 85.5571 31.5789 85.2495 31.5789H79.67C79.3623 31.5789 79.1036 31.4798 78.8939 31.2814C78.6841 31.083 78.5792 30.828 78.5792 30.5163V18.7878C78.5792 17.5126 78.2786 16.5349 77.6773 15.8548C77.076 15.1747 76.202 14.8347 75.0553 14.8347C73.9366 14.8347 73.0556 15.1818 72.4124 15.8761C71.7691 16.5704 71.4475 17.5409 71.4475 18.7878V21.4752C71.4475 21.9395 71.0754 22.3158 70.6164 22.3158H64.6015C64.1425 22.3158 63.7704 21.9395 63.7704 21.4752ZM94.2271 31.5789C93.9194 31.5789 93.6607 31.4798 93.451 31.2814C93.2412 31.083 93.1363 30.828 93.1363 30.5163V15.1322H89.99C89.6823 15.1322 89.4236 15.033 89.2139 14.8347C89.0041 14.6363 88.8993 14.3813 88.8993 14.0696V10.414C88.8993 10.1023 89.0041 9.84729 89.2139 9.64892C89.4236 9.45056 89.6823 9.35138 89.99 9.35138H93.1363V8.07619C93.1363 5.24243 93.9474 3.18798 95.5695 1.91278C97.1917 0.637588 99.5129 0 102.533 0H105.848C106.155 0 106.414 0.0991803 106.624 0.297544C106.833 0.495907 106.938 0.750943 106.938 1.06266V4.7182C106.938 5.02991 106.833 5.28494 106.624 5.48331C106.414 5.68167 106.155 5.78085 105.848 5.78085H102.869C101.974 5.78085 101.338 5.9863 100.96 6.39719C100.583 6.80809 100.394 7.43859 100.394 8.28872V9.35138H105.428C105.736 9.35138 105.994 9.45056 106.204 9.64892C106.414 9.84729 106.519 10.1023 106.519 10.414V14.0696C106.519 14.3813 106.414 14.6363 106.204 14.8347C105.994 15.033 105.736 15.1322 105.428 15.1322H100.394V30.5163C100.394 30.7997 100.296 31.0476 100.1 31.2602C99.9045 31.4727 99.6528 31.5789 99.3451 31.5789H94.2271ZM109.078 21.4752V10.4565C109.078 10.1448 109.176 9.88271 109.372 9.67018C109.567 9.45764 109.819 9.35138 110.127 9.35138H115.245C115.552 9.35138 115.811 9.45764 116.021 9.67018C116.231 9.88271 116.335 10.1448 116.335 10.4565V12.0718C117.119 11.1933 118.034 10.5203 119.083 10.0527C120.132 9.58516 121.3 9.35138 122.586 9.35138H124.474C124.782 9.35138 125.033 9.45056 125.229 9.64892C125.425 9.84729 125.523 10.1023 125.523 10.414V15.0472C125.523 15.3306 125.425 15.5785 125.229 15.7911C125.033 16.0036 124.782 16.1099 124.474 16.1099H120.237C119.118 16.1099 118.258 16.4216 117.657 17.045C117.056 17.6684 116.755 18.5469 116.755 19.6804V21.4752C116.755 21.9395 116.383 22.3158 115.924 22.3158H109.909C109.45 22.3158 109.078 21.9395 109.078 21.4752ZM138.358 31.7955C134.945 31.7955 132.261 30.8674 130.303 29.0113C128.345 27.1552 127.338 24.4561 127.282 20.9139V19.5962C127.394 16.224 128.429 13.5886 130.387 11.69C132.345 9.7914 134.987 8.84211 138.316 8.84211C140.721 8.84211 142.755 9.33092 144.42 10.3086C146.084 11.2862 147.328 12.6322 148.153 14.3467C148.978 16.0611 149.391 18.0093 149.391 20.1913V21.2539C149.391 21.5656 149.286 21.8278 149.076 22.0403C148.866 22.2528 148.608 22.3591 148.3 22.3591H135.001V22.6141C135.029 23.8893 135.323 24.9166 135.882 25.6958C136.442 26.4751 137.239 26.8648 138.274 26.8648C138.945 26.8648 139.483 26.7302 139.889 26.461C140.294 26.1917 140.679 25.8446 141.042 25.4195C141.294 25.1362 141.497 24.9591 141.651 24.8882C141.805 24.8174 142.049 24.782 142.385 24.782H147.881C148.132 24.782 148.349 24.8599 148.531 25.0157C148.713 25.1716 148.803 25.3629 148.803 25.5896C148.803 26.3264 148.391 27.1906 147.566 28.1825C146.741 29.1743 145.538 30.0244 143.958 30.7328C142.378 31.4413 140.511 31.7955 138.358 31.7955ZM141.672 18.0235V17.9384C141.672 16.5782 141.378 15.5227 140.791 14.7717C140.203 14.0208 139.378 13.6453 138.316 13.6453C137.253 13.6453 136.435 14.0208 135.861 14.7717C135.288 15.5227 135.001 16.5782 135.001 17.9384V18.0235H141.672ZM161.733 31.8546C159.02 31.8546 156.888 30.9904 155.335 29.2619C153.783 27.5333 152.951 25.0681 152.839 21.8661L152.798 20.3784L152.839 18.8483C152.951 15.7596 153.79 13.3298 155.356 11.5588C156.923 9.78774 159.048 8.90224 161.733 8.90224C164.25 8.90224 166.277 9.72399 167.815 11.3675V1.27314C167.815 0.961436 167.92 0.706412 168.13 0.508057C168.34 0.309702 168.585 0.210526 168.864 0.210526H174.276C174.583 0.210526 174.842 0.309702 175.052 0.508057C175.262 0.706412 175.366 0.961436 175.366 1.27314V30.367C175.366 30.6787 175.262 30.9337 175.052 31.132C174.842 31.3304 174.583 31.4296 174.276 31.4296H169.284C169.004 31.4296 168.759 31.3233 168.55 31.1108C168.34 30.8983 168.235 30.6503 168.235 30.367V29.0493C166.725 30.9195 164.557 31.8546 161.733 31.8546ZM164.166 25.9465C165.368 25.9465 166.263 25.5569 166.851 24.7776C167.438 23.9984 167.76 23.0137 167.815 21.8236C167.871 21.0302 167.899 20.4918 167.899 20.2084C167.899 19.8967 167.871 19.3725 167.815 18.6358C167.76 17.5306 167.431 16.6168 166.83 15.8942C166.228 15.1716 165.34 14.8104 164.166 14.8104C162.907 14.8104 162.005 15.1858 161.46 15.9367C160.915 16.6876 160.6 17.729 160.516 19.0608L160.474 20.3784L160.516 21.6961C160.6 23.0279 160.915 24.0692 161.46 24.8201C162.005 25.5711 162.907 25.9465 164.166 25.9465Z" fill="url(#paint0_linear)"/>
<path d="M115.917 24.8421H109.913C109.454 24.8421 109.081 25.2184 109.081 25.6827V30.7384C109.081 31.2026 109.454 31.5789 109.913 31.5789H115.917C116.376 31.5789 116.748 31.2026 116.748 30.7384V25.6827C116.748 25.2184 116.376 24.8421 115.917 24.8421Z" fill="#118299"/>
<path d="M70.6175 24.8421H64.6003C64.1413 24.8421 63.7692 25.2184 63.7692 25.6827V30.7384C63.7692 31.2026 64.1413 31.5789 64.6003 31.5789H70.6175C71.0765 31.5789 71.4487 31.2026 71.4487 30.7384V25.6827C71.4487 25.2184 71.0765 24.8421 70.6175 24.8421Z" fill="#165087"/>
<path d="M19.8616 24.8421H14.21C13.751 24.8421 13.3789 25.2184 13.3789 25.6827V30.7384C13.3789 31.2026 13.751 31.5789 14.21 31.5789H19.8616C20.3206 31.5789 20.6927 31.2026 20.6927 30.7384V25.6827C20.6927 25.2184 20.3206 24.8421 19.8616 24.8421Z" fill="#1C1872"/>
<path d="M6.55967 24.8421H0.83746C0.378449 24.8421 0.00634766 25.2184 0.00634766 25.6827V30.7384C0.00634766 31.2026 0.378449 31.5789 0.83746 31.5789H6.55967C7.01868 31.5789 7.39078 31.2026 7.39078 30.7384V25.6827C7.39078 25.2184 7.01868 24.8421 6.55967 24.8421Z" fill="#1E0A6D"/>
<defs>
<linearGradient id="paint0_linear" x1="0.00427246" y1="8.75347" x2="226.112" y2="8.75347" gradientUnits="userSpaceOnUse">
<stop stop-color="#1F066C"/>
<stop offset="1" stop-color="#01FFC6"/>
</linearGradient>
</defs>
</svg>
