<?xml version="1.0" encoding="utf-8"?>
<!-- Generator: Adobe Illustrator 23.0.1, SVG Export Plug-In . SVG Version: 6.00 Build 0)  -->
<svg version="1.1" id="Capa_1" xmlns="http://www.w3.org/2000/svg" xmlns:xlink="http://www.w3.org/1999/xlink" x="0px" y="0px"
	 viewBox="0 0 128 128" style="enable-background:new 0 0 128 128;" xml:space="preserve">
<style type="text/css">
	.st0{fill:#FFFFFF;}
</style>
<path class="st0" d="M75.4,15.3c-0.2,0.1-1.3,0.4-2.4,0.8c-5.9,1.9-10.2,4.2-11.2,6c-0.4,0.7-0.5,1.2-0.2,1.8c0.3,0.6,0.7,1.1,2.1,2
	c0.6,0.4,1.7,1.3,2.4,2c3.3,3.3,4.8,7.3,4.7,11.8c-0.2,5.1-2.6,10.2-7.2,15.3c-1.6,1.8-3.2,3.3-6.4,5.8c-2.6,2.1-4,3.5-5,4.8
	c-3,4-2.2,7.6,2.3,10.7c4,2.7,11,4.9,19.3,6.1c2.8,0.4,5.9,0.7,6.7,0.6l0.5-0.1l0.8-1.5c4.2-7.6,6.3-14.7,6.6-22.1
	c0.1-3.3-0.3-7.2-1-9.5c-0.1-0.4-0.2-0.8-0.2-0.8c0,0,1.2-0.4,2.6-0.8c7.5-2.2,14.7-4,20.7-5c1.2-0.2,2.2-0.4,2.2-0.5
	c0.3-0.3-0.6-1.8-2.1-3.3c-5.6-5.8-15.5-10.2-27.1-12.1c-2.2-0.4-2.5-0.5-3.3-1.6c-1.3-1.8-2.6-4.7-4.3-10.2
	C75.9,15.2,75.9,15.2,75.4,15.3z M76.2,17.4c0.7,1.8,1.1,3.2,1.1,3.7v0.4l-0.6-0.1c-3-0.4-7.8-1.1-8.8-1.4c-0.3-0.1-0.4-0.2-0.4-0.3
	c0.1-0.1,1.1-0.6,4.1-2c2.8-1.3,3.9-1.8,4-1.8C75.6,16,75.9,16.6,76.2,17.4z M69.8,21.1c3.7,0.8,6.3,1.3,6.9,1.3
	c0.6,0,0.5,0-2.2,1.7c-2.1,1.3-2.3,1.4-2.8,1.4h-0.6l-1.5-1.5c-1.9-1.9-3.1-3.3-3.1-3.4c0-0.1,0-0.1,0.1,0
	C66.6,20.4,68.1,20.8,69.8,21.1z M67.1,22.9c0.9,1,1.6,1.9,1.6,2c-0.1,0.1-2.6-0.6-4.2-1c-1.4-0.4-1.5-0.6-1.2-1
	c0.2-0.3,2-1.8,2.1-1.8C65.5,21,66.2,21.8,67.1,22.9z M78.8,25c0.4,0.9,0.6,1.5,0.6,1.5c0,0-4.8-0.7-5.2-0.8c-0.1,0,0.7-0.6,1.8-1.2
	s2-1.2,2.1-1.1S78.4,24.2,78.8,25z M68.3,26.6c0.1,0.1,1.2,3.8,1.2,3.8c0,0-0.6-0.6-1.2-1.4s-1.6-1.9-2.2-2.5l-1-1.1l1.6,0.5
	C67.5,26.3,68.3,26.6,68.3,26.6L68.3,26.6z M72.9,27.1c2,0.3,3.6,0.5,3.7,0.6c0,0-1.2,1-2.7,2.1c-1.5,1.1-2.7,2-2.8,2
	s-0.2-0.5-0.3-1c-0.2-0.5-0.6-1.7-0.9-2.6c-0.3-0.9-0.6-1.6-0.6-1.6C69.3,26.6,70.9,26.8,72.9,27.1z M77.9,28.7c0.4,1,0.6,2,0.7,4
	c0,1.1,0,1.9,0,1.9c0,0-0.7-0.2-1.4-0.5c-1.5-0.5-4.3-1.5-4.7-1.5c-0.2,0,0.5-0.7,2.4-2.3c1.4-1.2,2.6-2.2,2.7-2.2
	C77.6,28.1,77.8,28.4,77.9,28.7z M83,29c2.2,0.5,4.1,0.9,4.3,0.9c0.2,0-0.3,0.4-2.6,1.7c-1.6,0.9-3.4,1.9-4,2.2
	c-0.6,0.3-1.1,0.6-1.2,0.6s0.1-0.3,0.1-0.7c0.3-1.4,0.1-3.2-0.5-4.6c-0.2-0.4-0.3-0.8-0.3-0.8C78.7,28.1,79.1,28.2,83,29z M89,31.7
	c-0.1,0.5-0.4,1.3-0.6,1.9c-0.4,1.2-2,4.4-2.2,4.4c-0.1,0-0.8-0.3-1.6-0.7s-1.9-1-2.5-1.3l-1.1-0.5l4-2.6c3.3-2.1,4-2.5,4.1-2.4
	C89.2,30.6,89.2,31.1,89,31.7z M92,30.7c4.2,1.2,8.6,2.8,8.3,3.1c-0.1,0-0.6,0.2-1.2,0.4c-3.2,0.9-7.6,2.4-9.6,3.3
	c-0.6,0.3-1.2,0.5-1.2,0.5c0,0,0.2-1,0.6-2c0.7-2.2,1.4-5.1,1.4-5.4c0-0.2,0.1-0.2,0.2-0.2C90.6,30.3,91.3,30.5,92,30.7z M74,35.1
	c0.9,0.3,2.1,0.7,2.5,1c0.7,0.4,0.8,0.4,0.5,0.6c-0.4,0.4-4.5,4.3-4.7,4.3c-0.1,0-0.1-0.6-0.1-1.4c0-1.5-0.2-4.1-0.3-4.7
	C71.9,34.4,71.9,34.4,74,35.1z M100.6,35.8c-0.9,1.5-2.4,3.7-3.5,5c-1.1,1.4-3.5,4-3.6,4c-0.1,0-0.4-0.4-0.8-0.9
	c-1.3-1.9-2.9-3.6-4.3-4.5c-0.1-0.1-0.2-0.2-0.2-0.2s2.3-0.8,4.9-1.8c5.4-2,7.8-2.8,8-2.7C101.2,34.7,100.9,35.2,100.6,35.8z
	 M104,35.6c3.8,2.6,6.3,4.7,7.2,6c0.2,0.3,0.4,0.6,0.4,0.6c0,0-1.2,0.2-2.7,0.3c-5.8,0.6-10,1.2-12.2,1.7c-0.6,0.2-1.1,0.3-1.1,0.3
	c0,0,0.4-0.5,0.9-1.1c2.5-3,4.8-6.2,5.7-7.9c0.2-0.4,0.4-0.8,0.5-0.8C102.7,34.7,103.3,35.1,104,35.6z M82.9,38.8
	c0.7,0.4,1.3,0.7,1.2,0.8c-0.1,0.1-6.4,3.6-6.4,3.5c0,0,0.3-1,0.7-2.3c0.4-1.3,0.8-2.7,0.9-3.1l0.1-0.8l1.1,0.6
	C81.1,37.9,82.2,38.4,82.9,38.8z M77.6,39c-0.6,2.1-1.8,4.9-2.4,5.3c-0.1,0.1-0.4,0-1.2-0.7c-0.6-0.5-1.2-0.9-1.3-1
	c-0.2-0.1-0.3-0.2-0.2-0.3c0.4-0.4,5.5-4.5,5.5-4.4C77.9,37.9,77.8,38.5,77.6,39z M89.1,42.7c0.9,0.6,3.1,2.5,3,2.7
	c0,0-2.2,0.7-4.8,1.5s-5.5,1.8-6.4,2.1c-0.9,0.3-1.7,0.6-1.7,0.5c0,0,0.7-0.8,1.5-1.7c2.1-2.4,4.3-4.9,5.1-5.9l0.7-0.9l0.9,0.5
	C87.7,41.8,88.5,42.4,89.1,42.7z M84.2,41.4c-0.1,0.1-0.6,0.8-1.3,1.6s-2.2,2.8-3.4,4.4l-2.3,2.9l-0.1-0.5c-0.1-1-0.7-2.8-0.9-3.5
	l-0.3-0.6l1.4-0.7c1.5-0.7,4.6-2.4,6-3.3C84.3,41.2,84.4,41.1,84.2,41.4z M72.2,44.9c0.6,0.3,1.1,0.7,1.1,0.8c0,0.2-3.8,3.2-3.9,3
	c0,0,0.3-0.7,0.8-1.5s0.9-1.7,1-2c0.1-0.3,0.3-0.6,0.4-0.6C71.6,44.6,71.9,44.7,72.2,44.9z M75.4,48.5c0.3,0.5,0.5,2,0.4,2.1
	c-0.1,0-1.6,0.8-3.5,1.7c-1.9,0.9-4.3,2-5.4,2.6s-2,1-1.9,0.9c0.1-0.1,1.3-1.1,2.7-2.3c2.8-2.3,5.9-5,6.5-5.6l0.3-0.4l0.3,0.3
	C75.1,47.9,75.3,48.3,75.4,48.5z M72.4,48.5c-0.3,0.3-1.8,1.5-3.3,2.8s-3.3,2.9-4.1,3.5c-1.4,1.3-1.4,1.3,0.4-1.1
	c1.4-1.8,2.2-2.5,4.2-3.9c1-0.7,3-1.8,3.2-1.8C72.8,48,72.6,48.2,72.4,48.5z M86.6,49.8c0.1,0.4,0.2,1.6,0.2,2.7l0.1,2l-0.5-0.2
	c-1.6-0.7-6-3.2-5.8-3.3c1-0.4,5.8-2,5.8-1.9C86.5,49,86.6,49.4,86.6,49.8z M82.9,53.3c1.8,1.1,3.4,2,3.4,2c0,0-0.2,0.2-0.5,0.4
	c-0.6,0.4-6.8,3.7-6.9,3.6c0,0,0.1-0.6,0.2-1.2c0.3-1.3,0.5-5,0.4-6.2c0-0.4,0-0.7,0-0.7C79.5,51.3,81,52.2,82.9,53.3z M77.8,52.5
	c0.1,1.2,0,3.5-0.3,4.8c-0.4,1.4-0.6,2-0.8,2.1c-0.2,0.1-1.6-1.2-2.4-2.2c-0.8-1-1.9-3-1.8-3.2c0.1-0.1,5-2.1,5.1-2.1
	C77.6,51.8,77.7,52.1,77.8,52.5z M71.8,55.4c0.5,1.1,1.7,2.6,3,3.9c0.8,0.8,1,1.1,0.9,1.2c-0.6,0.4-3.2,1.6-4.8,2.3
	c-2,0.8-4.6,1.7-4.6,1.6c0,0,0.6-1.1,1.3-2.4c1.6-2.8,3.7-6.8,3.7-7.1C71.2,54.4,71.4,54.6,71.8,55.4z M68.7,55.5
	c0,0.1-0.3,0.7-0.6,1.4c-1.2,2.9-3.4,6.9-3.9,6.9c-0.4,0-1-2.3-1.1-4.5l-0.1-1.1l2.7-1.4c1.5-0.8,2.8-1.4,2.8-1.4
	C68.7,55.3,68.7,55.4,68.7,55.5z M87,58.2c0,1.7-0.7,5.8-1.1,6.2c-0.2,0.2-1.9-0.5-3.5-1.3c-1.4-0.7-3.7-2.2-3.7-2.3
	c0,0,0.3-0.2,0.8-0.4c0.8-0.3,4.7-2.4,6.3-3.4l0.9-0.6l0.1,0.4C86.9,57.1,87,57.7,87,58.2z M61.2,60.1c0.2,1.3,0.6,3,1.1,4.3
	c0.2,0.5,0.4,1,0.3,1c-0.2,0.2-8.4,2.4-9.5,2.6l-0.5,0.1l0.1-0.4c0.1-0.6,0.9-2.2,1.5-3.1c0.7-1.1,2.6-2.9,3.8-3.8
	c0.9-0.6,3.1-1.9,3.1-1.8C61,59,61.1,59.5,61.2,60.1z M79.8,62.9c2.5,1.2,3.5,1.6,4.7,2.1l0.9,0.3l-0.6,0.3
	c-3.3,1.7-9.2,4.1-10.8,4.4c-0.3,0.1-0.4,0.1-0.3-0.1c0.3-0.7,3.8-8,3.8-8C77.7,61.9,78.7,62.4,79.8,62.9z M75.4,62.7
	c-0.2,0.9-1.2,3.6-1.7,4.9c-0.5,1.1-1.6,3.2-1.8,3.4c-0.1,0.1-2.1-1-3.1-1.7c-1.1-0.8-3.4-3-3.3-3.2c0-0.1,1.4-0.6,3.2-1.2
	c3.6-1.3,5.6-2,6.2-2.3C75.4,62.2,75.5,62.2,75.4,62.7z M85.5,66.5c0,0.3-0.2,1.3-0.5,2.4c-0.7,3.5-1.5,5.8-2.1,5.8
	c-0.7,0-5.8-1.2-7.4-1.8c-1.1-0.4-2.1-0.8-2.4-1.1c-0.2-0.2-0.1-0.2,1.3-0.8c4.7-1.9,10-4.3,10.6-4.8C85.5,66,85.6,66,85.5,66.5z
	 M61.9,67.5c-0.5,0.9-1.6,2.5-3.7,5.3l-1.8,2.4l-0.5-0.4c-0.7-0.5-1.9-1.8-2.4-2.6c-0.5-0.9-0.9-1.9-0.9-2.8l0-0.6l0.9-0.1
	c1.2-0.1,4.5-0.8,6.8-1.4c1.1-0.3,2-0.5,2-0.5C62.3,66.9,62.1,67.2,61.9,67.5z M67,70c0.6,0.4,1.4,1,1.8,1.2l0.8,0.4l-0.3,0.1
	c-0.2,0.1-2.9,1.1-6.1,2.2c-5.4,1.9-5.8,2.1-5.9,1.9c-0.1-0.1-0.2-0.2-0.1-0.3c0,0,1.5-1.9,3.3-4.2l3.2-4.1l1.2,1
	C65.4,68.8,66.4,69.6,67,70z M68.4,76.2c-1.2,1.8-2.2,3.3-2.2,3.3c-0.1,0.1-2-0.3-3.4-0.8c-1.5-0.5-3.3-1.4-4-2l-0.5-0.4l1.2-0.3
	c4.8-1.3,11.1-3,11.1-2.9C70.5,73,69.5,74.4,68.4,76.2z M74,73.5c2.5,0.9,4.8,1.4,7.8,1.7l0.8,0.1l-2.2,0.8
	c-5.6,2-10.1,3.4-12.3,3.9c-0.6,0.1-1.2,0.2-1.3,0.2s0.4-0.6,1-1.4c1.7-2.1,3.5-4.4,4-5.2c0.2-0.3,0.5-0.7,0.5-0.7
	C72.5,73,73.2,73.2,74,73.5z M82.3,78.2c-1,2.5-1.7,4-1.9,4.1c-0.5,0.2-7-0.8-9.1-1.3c-1.3-0.4-2.2-0.7-1.9-0.8
	c0.1,0,1.1-0.3,2.1-0.5c3.5-0.8,8.8-2.4,11-3.3c0.3-0.1,0.5-0.2,0.6-0.2C83.1,76.1,82.8,77.1,82.3,78.2z M43.5,80.3
	c-0.5,0.2-0.7,0.6-0.7,1.3c0,0.7,0,0.7-0.4,0.7s-0.3,0-0.3,0.5c0,0.4,0.1,0.5,0.4,0.5l0.3,0v3.7l0.5-0.1l0.6,0l0-1.8l0-1.8h1.6v1.3
	c0,1.6,0.2,2.1,0.9,2.3c0.3,0.1,0.6,0.1,0.9,0.1c0.5-0.1,0.5-0.1,0.5-0.6l0-0.5L47.5,86c-0.7,0.1-0.7,0-0.7-1.6l0-1h0.3
	c0.6,0,0.7-0.1,0.7-0.6v-0.5h-1.1v-0.4c0-0.7-0.1-0.8-0.7-0.7l-0.5,0l0,0.6l0,0.6h-1.6v-0.4c0-0.6,0.3-0.8,0.8-0.7
	c0.4,0.1,0.4,0.1,0.4-0.3c0-0.2-0.1-0.5-0.1-0.5C44.8,80.2,43.8,80.2,43.5,80.3L43.5,80.3z M17.4,80.5c-0.5,0.4-0.3,1.1,0.4,1.1
	c0.7,0,0.8-0.1,0.8-0.6C18.6,80.3,18,80.1,17.4,80.5z M8.8,80.8c-0.2,0.1-0.2,0.4-0.2,3.2l0,3l0.6,0l0.6,0v-2.6c0-1.4,0-2.6,0.1-2.6
	c0,0,0.4,1,0.8,2.1s0.8,2.3,0.9,2.6l0.2,0.5l0.6-0.1l0.6,0l0.9-2.5l0.9-2.5l0.1,2.5c0,1.4,0.1,2.5,0.1,2.5c0,0,0.3,0,0.6,0l0.6,0
	l0-3c0-2.1,0-3-0.1-3.2c-0.2-0.3-1.5-0.2-1.8,0.1C14,81,13.5,82,13.1,83c-0.4,1.1-0.8,2-0.8,2c0,0.1-0.4-0.8-0.8-1.9
	c-0.4-1.1-0.8-2.1-1-2.2c-0.2-0.2-0.4-0.3-0.9-0.3C9.3,80.7,8.9,80.7,8.8,80.8z M20.9,82.3c-0.9,0.3-1.4,1.2-1.4,2.4
	c0,1.4,0.5,2.2,1.6,2.3c0.5,0.1,1.4-0.1,1.7-0.4c0.2-0.2,0.3-0.8,0.1-1c0,0-0.3,0-0.5,0.2c-0.9,0.5-1.5,0.2-1.7-0.7
	c-0.1-0.6,0-1.3,0.3-1.7c0.3-0.3,0.9-0.3,1.4,0c0.5,0.2,0.6,0.2,0.6-0.4c0-0.3-0.1-0.4-0.3-0.6C22.4,82.2,21.3,82.2,20.9,82.3z
	 M25.5,82.6C25,82.9,25,82.9,25,82.6c0-0.2-0.1-0.3-0.5-0.3l-0.5,0V87h1.2v-1.5c0-1.5,0-1.5,0.4-1.8c0.3-0.3,0.4-0.4,0.8-0.3
	c0.4,0.1,0.5-0.1,0.5-0.6C26.8,82.1,26.1,82,25.5,82.6z M28.7,82.3c-1,0.3-1.5,1.4-1.4,2.7c0.1,1.2,0.7,1.9,1.9,2.1
	c2,0.3,3.3-1.3,2.7-3.4C31.5,82.5,30.2,81.9,28.7,82.3z M30.1,83.3c0.6,0.3,0.8,1.8,0.3,2.4c-0.3,0.4-1,0.5-1.5,0.2
	c-0.3-0.2-0.3-0.3-0.3-1.2c0-0.9,0-1,0.3-1.3C29.3,83.1,29.7,83.1,30.1,83.3z M33.6,82.4c-0.6,0.3-0.8,0.6-0.8,1.3
	c0,0.7,0.2,1,1.3,1.5c0.6,0.3,0.7,0.4,0.7,0.7c0,0.2-0.1,0.3-0.3,0.4c-0.3,0.1-0.6,0.1-1.5-0.3c-0.2-0.1-0.2,0-0.2,0.4
	c0,0.4,0.1,0.5,0.4,0.6c0.5,0.2,1.7,0.2,2.2,0c0.7-0.4,0.9-1.5,0.4-2.1c-0.1-0.1-0.5-0.4-1-0.6c-0.8-0.4-1-0.6-0.7-1
	c0.2-0.2,0.7-0.2,1.2,0c0.3,0.2,0.4,0.2,0.5,0c0.1-0.3,0-0.7-0.3-0.8C35,82.2,34,82.2,33.6,82.4z M38.3,82.3c-1,0.4-1.5,1-1.6,2.1
	c-0.1,1.4,0.4,2.3,1.5,2.6c1.8,0.5,3.2-0.5,3.2-2.4c0-1.1-0.5-2-1.4-2.3C39.6,82.2,38.7,82.2,38.3,82.3z M39.7,83.4
	c0.3,0.3,0.3,0.3,0.3,1.2c0,0.8,0,0.9-0.3,1.2c-0.4,0.4-1.1,0.4-1.4,0.1C38,85.5,38,85.2,38,84.3c0-0.5,0.1-0.7,0.4-0.9
	C38.8,83,39.3,83.1,39.7,83.4z M17.3,84.6l0,2.3h1.2v-4.6l-0.6,0l-0.6,0L17.3,84.6z M11.7,89.9c-1.5,0.3-2.6,1.2-3.3,2.4
	C8,93.1,8,93.2,8,94.4c0,1.2,0,1.4,0.3,2c0.6,1.3,1.8,2.2,4.2,3.3c2.6,1.2,3.4,1.9,3.4,3.5c0,1.4-0.6,2.2-2.1,2.7
	c-1.4,0.4-2.8,0.2-4.7-0.7c-0.6-0.3-1.2-0.6-1.2-0.6c-0.1,0-0.2,0.1-0.3,0.2c-0.2,0.2-0.3,1.4-0.1,1.8c0.4,0.8,2.7,1.6,4.8,1.6
	c3.8,0,6.2-2.3,6-5.6c0-0.7-0.1-1.1-0.4-1.7c-0.6-1.2-1.4-1.8-3.7-2.9c-1.1-0.5-2.2-1.2-2.6-1.4c-1.5-1-1.8-2.7-0.8-3.8
	c0.6-0.7,1.1-0.9,2.3-0.9c1.1,0,1.6,0.1,2.9,0.8c1.1,0.6,1.2,0.5,1.2-0.6c0-1-0.1-1.1-1.1-1.6C15,89.8,13.1,89.6,11.7,89.9
	L11.7,89.9z M27.4,89.8c-2.2,0.4-4,1.4-5.1,3.2c-0.6,0.9-0.9,1.7-1.2,3.2c-0.3,1.6-0.3,5,0.1,6.4c1,3.5,3.1,5.2,6.8,5.3
	c1.9,0.1,2.7-0.1,4.6-0.9c0.1,0,0.4,0.2,0.7,0.4c1.2,1.1,3.9,2.6,4.8,2.8c0.6,0.1,0.7-0.1,0.7-0.9c0-0.4,0-0.8-0.1-0.9
	s-0.6-0.5-1.3-0.8c-1-0.5-3-1.8-3-1.9c0,0,0.2-0.3,0.4-0.6c1-1.2,1.5-3,1.7-5.2c0.2-1.7,0-3.5-0.4-5c-0.7-2.6-2.4-4.3-4.9-5
	C30.6,89.8,28.3,89.7,27.4,89.8L27.4,89.8z M31,92.1c1.4,0.5,2.3,1.6,2.9,3.2c0.3,0.8,0.3,1.2,0.4,3c0.1,2.4-0.1,3.5-0.7,4.8
	c-1,2.1-3.2,3.2-5.7,2.8c-3.1-0.5-4.5-2.8-4.4-7.5c0.1-2.7,0.6-4.1,1.8-5.3c0.7-0.7,1.3-1,2.1-1.2C28.3,91.7,30.1,91.8,31,92.1z
	 M59.3,89.9c-1.5,0.3-2.7,1.3-3.2,2.3c-0.6,1.2-0.6,3,0,4.1c0.7,1.3,1.6,2,4.4,3.3c2.1,1,2.8,1.6,3.1,2.6c0.3,1.2-0.1,2.4-1.1,3
	c-1.5,1-3.7,0.8-6-0.4c-1-0.6-1.2-0.5-1.2,0.5c0,0.9,0.1,1.2,0.8,1.6c2,1.2,5.3,1.3,7.3,0.3c2.5-1.2,3.6-4.2,2.4-6.6
	c-0.2-0.3-0.6-0.8-0.9-1.2c-0.6-0.6-1-0.8-3-1.8c-3.2-1.6-3.9-2.3-3.7-3.9c0.1-0.8,0.5-1.4,1.3-1.8c0.5-0.3,0.8-0.3,1.6-0.3
	c1.2,0,1.6,0.1,2.8,0.7c1,0.5,1.2,0.6,1.3,0.3c0.1-0.3,0.1-1.5-0.1-1.8c-0.2-0.3-1.4-0.8-2.4-1.1S60.2,89.7,59.3,89.9L59.3,89.9z
	 M41,90.1c-0.1,0.1-0.1,2.2-0.1,8.6v8.5l0.3,0.3l0.3,0.3h4.2c3.2,0,4.2,0,4.3-0.2c0.2-0.2,0.3-0.9,0.2-1.4l-0.1-0.4l-3.3-0.1
	l-3.3-0.1l0-7.8c0-6-0.1-7.8-0.2-7.9C42.8,89.9,41.1,90,41,90.1z M72.4,94.5c-0.6,0.1-1.7,0.5-2.2,0.9c-1.1,0.8-1.9,2-2.4,3.7
	c-0.3,1.1-0.3,3.6,0,4.7c0.6,2.2,1.9,3.5,3.9,4.1c0.9,0.2,3.1,0.2,4.2,0c1-0.2,2.1-0.6,2.3-0.8c0.2-0.2,0.2-1.4,0-1.6
	c-0.1-0.1-0.4,0-1.2,0.3c-3.2,1.1-5.7,0.6-6.6-1.3c-0.3-0.6-0.5-1.7-0.5-2.3v-0.3H74c2.6,0,4.2-0.1,4.4-0.1c0.5-0.2,0.7-0.6,0.6-1.8
	c-0.2-2.3-0.9-3.7-2.5-4.7C75.5,94.6,73.7,94.3,72.4,94.5z M74.6,96.4c1.2,0.4,1.9,1.4,2.1,2.8l0.1,0.8h-6.8l0.1-0.5
	c0.2-1.2,0.7-2.1,1.5-2.7C72.4,96.2,73.5,96.1,74.6,96.4z M86.1,94.6c-0.6,0.2-1.4,0.8-1.9,1.6l-0.6,0.7l-0.1-1.1l-0.1-1.1l-0.7,0
	c-0.4,0-0.8,0-1,0l-0.3,0.1v6.4c0,5.7,0,6.4,0.2,6.5c0.2,0.1,1.6,0.1,1.9,0c0.2-0.1,0.2-0.6,0.2-4.3v-4.2l0.5-0.7
	c0.7-1,1.6-1.8,2.2-1.9c0.3-0.1,0.7,0,1.2,0.1c0.5,0.1,0.8,0.2,0.9,0.1c0.1-0.1,0.1-0.5,0.1-1c0-0.9-0.1-0.9-0.4-1.1
	C87.9,94.5,86.6,94.4,86.1,94.6L86.1,94.6z M106.4,94.6c-0.9,0.2-2.3,0.8-2.9,1.5c-1.3,1.3-1.8,3.1-1.7,5.7c0.1,2.4,0.5,3.6,1.8,4.7
	c1.2,1.1,2.4,1.5,4.7,1.4c1.7-0.1,3.2-0.4,3.9-0.8c0.3-0.2,0.4-0.3,0.4-0.9c0-0.3,0-0.7-0.1-0.8c-0.1-0.2,0-0.2-2,0.4
	c-0.8,0.3-1.2,0.3-2.2,0.3c-2,0-3-0.5-3.7-1.9c-0.3-0.6-0.4-1-0.4-1.6l-0.1-0.9l4.2,0c5.1,0,4.8,0.1,4.7-1.5c0-2.8-1.2-4.7-3.3-5.4
	C108.9,94.5,107.3,94.4,106.4,94.6z M108.6,96.4c1.2,0.3,1.9,1.4,2.1,2.9l0.1,0.7H104l0.1-0.6c0.2-1.4,1.2-2.7,2.4-3.1
	C107,96.2,108,96.2,108.6,96.4z M120.3,94.6c-0.8,0.3-1.8,1.1-2.4,2c-0.2,0.3-0.2,0.3-0.2-0.7c0-0.6-0.1-1-0.1-1.1
	c-0.2-0.2-1.7-0.2-1.8,0c-0.2,0.2-0.2,12.6,0,12.8c0.2,0.2,1.9,0.2,2.1,0c0.1-0.1,0.1-1.2,0.1-4.3v-4.1l0.4-0.7c0.7-1,1.5-1.7,2-1.9
	c0.5-0.2,0.7-0.1,2,0.2c0.4,0.1,0.5-0.1,0.5-0.9c0-0.9-0.1-1.1-0.4-1.3C122.1,94.5,120.7,94.4,120.3,94.6L120.3,94.6z M89,94.9
	c-0.1,0.2,0.2,1.3,2.1,6.3c1.2,3.4,2.3,6.3,2.4,6.4c0.4,0.5,2.7,0.3,2.9-0.1c0.2-0.4,4.3-11.9,4.4-12.1c0.1-0.5-0.1-0.6-1.1-0.6
	c-0.6,0-1,0.1-1,0.2c-0.1,0.1-0.9,2.5-1.9,5.3s-1.8,5.1-1.8,5.1c-0.1-0.1-0.9-2.4-1.8-5.2s-1.8-5.1-1.9-5.2
	C91,94.6,89.2,94.6,89,94.9z"/>
</svg>
